# xmcd
#
# Track frame offsets:
#	150
#	23680
#	42587
#	59461
#	84278
#	106045
#	127741
#	154678
#	176195
#	191325
#	209341
#
# Disc length: 2986 seconds
#
# Revision: 1
# Processed by: cddbd v1.5.2PL0 Copyright (c) Steve Scherf et al.
# Submitted via: audiograbber 1.83.01
#
DISCID=860ba80b
DTITLE=Larry Travis - Blues Papa
DYEAR=1900
DGENRE=Blues
TTITLE0=Heart Breakin' Woman
TTITLE1=Like A Bluesman Do
TTITLE2=Blues'n My Mind
TTITLE3=Are You Ready For The Blues
TTITLE4=I Drink Alone
TTITLE5=Showdown
TTITLE6=Nineteen Years Old
TTITLE7=Girl At The Bar
TTITLE8=Put The Shoe On The Other Foot
TTITLE9=All Night Long
TTITLE10=Heart Of The City
EXTD=Larry "Papa Blues" Travis\nLas Vegas, Nevada, U.S.A.\n(702) 871-1245\n
EXTT0=
EXTT1=
EXTT2=
EXTT3=
EXTT4=
EXTT5=
EXTT6=
EXTT7=
EXTT8=
EXTT9=
EXTT10=
PLAYORDER=
